<svg viewBox="0 0 16 16" xmlns="http://www.w3.org/2000/svg" xmlns:xlink="http://www.w3.org/1999/xlink" width="16.000000" height="16.000000" fill="none">
	<rect id="arrow 1" width="15.999999" height="16.000000" x="0.000000" y="0.000000" fill="rgb(255,255,255)" fill-opacity="0" transform="matrix(-1,-8.74228e-08,-8.74228e-08,1,16,0)" />
	<g id="Group">
		<g id="Group">
			<path id="Vector" d="M15.0383 5.73782C14.9728 5.72719 14.9066 5.72229 14.8403 5.72315L3.55262 5.72315L3.79875 5.60867C4.03933 5.4948 4.2582 5.33982 4.44556 5.15075L7.6109 1.9854C8.02779 1.58745 8.09783 0.947257 7.7769 0.468555C7.40337 -0.0415567 6.68706 -0.152315 6.17691 0.221209C6.1357 0.251403 6.09652 0.284315 6.05971 0.319732L0.335755 6.04369C-0.111572 6.49052 -0.111966 7.21535 0.334861 7.66268C0.335147 7.66296 0.335469 7.66328 0.335755 7.66357L6.05971 13.3875C6.5074 13.834 7.23223 13.833 7.6787 13.3853C7.71383 13.35 7.74663 13.3125 7.7769 13.2731C8.09783 12.7943 8.02779 12.1542 7.6109 11.7562L4.45128 8.58513C4.28332 8.41699 4.09021 8.276 3.87888 8.16728L3.53545 8.01273L14.7773 8.01273C15.3621 8.03445 15.8752 7.62594 15.9851 7.05111C16.0863 6.42702 15.6624 5.83906 15.0383 5.73782Z" fill="rgb(32.9375,148.41,255)" fill-rule="nonzero" transform="matrix(-1,-8.74228e-08,-8.74228e-08,1,16,1.13867)" />
		</g>
	</g>
</svg>
