<svg viewBox="0 0 106.018 113.256" xmlns="http://www.w3.org/2000/svg" xmlns:xlink="http://www.w3.org/1999/xlink" width="106.017578" height="113.255859" fill="none">
	<rect id="Frame" width="71.000000" height="90.000000" x="0.000000" y="0.000000" fill="rgb(255,255,255)" fill-opacity="0" transform="matrix(0.871438,-0.490506,0.490506,0.871438,0,34.8262)" />
	<path id="Vector" d="M45.9322 86.1771L45.0223 84.1901C46.5389 83.5205 48.0556 82.8294 49.5505 82.0302L50.5255 83.9741C49.0955 84.7948 47.4705 85.4859 45.9322 86.1771ZM55.0321 81.6631L53.9271 79.7624C55.4437 78.8769 56.8087 78.013 58.0653 77.1058L59.3436 78.8553C57.9562 79.8651 56.5171 80.8023 55.0321 81.6631ZM63.3085 75.5508L61.7919 73.9741C62.1819 73.6069 62.5719 73.1966 62.9402 72.8078C63.6579 72.0314 64.3238 71.2089 64.9335 70.3456L66.7318 71.5767C66.0685 72.522 65.3448 73.4238 64.5652 74.2765C64.2618 74.7084 63.7418 75.1404 63.3085 75.5508ZM69.2884 66.9114L67.2734 66.0475C67.9088 64.5863 68.374 63.0572 68.6601 61.4903L70.8267 61.879C70.5044 63.6435 69.9886 65.3673 69.2884 67.0194L69.2884 66.9114ZM68.8984 56.8035C68.7607 55.2517 68.3654 53.7336 67.7284 52.311L69.7217 51.4039C70.454 53.0458 70.908 54.7974 71.065 56.5875L68.8984 56.8035ZM65.1718 48.4233C64.0999 47.2596 62.8841 46.2363 61.5536 45.378L62.7452 43.5637C64.244 44.5053 65.607 45.6461 66.7968 46.9547L65.1718 48.4233ZM57.2637 43.1318C55.9204 42.5702 54.4037 42.0086 52.6488 41.4471L53.2988 39.2873C54.941 39.7879 56.554 40.3791 58.1303 41.0583L57.2637 43.1318ZM47.8389 40.0432L46.3656 39.6328L42.9856 38.6825L43.5923 36.5227L46.9506 37.4514L48.4455 37.8618L47.8389 40.0432ZM38.1325 37.1274C36.5292 36.5443 34.9475 35.8747 33.3876 35.162L34.3192 33.1965C35.8141 33.8661 37.3525 34.5141 38.8907 35.0756L38.1325 37.1274ZM28.8377 32.8078C27.3427 31.987 25.8911 31.0799 24.5044 30.1512L25.7178 28.3369C27.0827 29.2441 28.491 30.108 29.921 30.9071L28.8377 32.8078ZM20.3229 27.1706C19.0012 26.1123 17.6796 25.0108 16.423 23.8661L17.8963 22.2678C19.1096 23.3693 20.3879 24.4276 21.6662 25.4428L20.3229 27.1706ZM12.7831 20.3024C11.6131 19.0497 10.4864 17.7538 9.42479 16.4579L11.1147 15.0756C12.1547 16.3499 13.2814 17.6026 14.3647 18.7905L12.7831 20.3024ZM6.28321 12.3542C5.32989 10.9503 4.41992 9.50324 3.57494 8.03456L5.45988 6.95465C6.28319 8.35853 7.17151 9.76241 8.10316 11.1231L6.28321 12.3542ZM1.19165 3.52053C0.779988 2.635 0.368325 1.74946 0 0.842331L2.01497 0C2.38329 0.885529 2.77328 1.72786 3.16327 2.59179L1.19165 3.52053Z" fill="rgb(241.188,241.188,241.188)" fill-rule="nonzero" transform="matrix(0.871438,-0.490506,0.490506,0.871438,-0.130859,34.7256)" />
	<path id="Vector" d="M12.5014 16.1555L13.173 14.0605L2.90327 10.7991L6.93317 0.820737L4.89655 0L0 12.1382L12.5014 16.1555Z" fill="rgb(241.188,241.188,241.188)" fill-rule="nonzero" transform="matrix(0.871438,-0.490506,0.490506,0.871438,73.907,77.9648)" />
</svg>
