<svg viewBox="0 0 22 22" xmlns="http://www.w3.org/2000/svg" xmlns:xlink="http://www.w3.org/1999/xlink" width="22.000000" height="22.000000" fill="none">
	<rect id="snowflake 1" width="22.000000" height="22.000000" x="0.000000" y="0.000000" fill="rgb(255,255,255)" fill-opacity="0" />
	<path id="Vector" d="M11.9992 9.7114C11.9666 9.6571 11.9206 9.61215 11.8655 9.58092C11.8104 9.54969 11.7482 9.53325 11.6849 9.5332L10.3151 9.5332C10.2518 9.53322 10.1896 9.5496 10.1345 9.58076C10.0795 9.61192 10.0334 9.6568 10.0008 9.71104L9.34083 10.811C9.30664 10.868 9.28857 10.9332 9.28857 10.9997C9.28857 11.0661 9.30664 11.1314 9.34083 11.1883L10.0008 12.2883C10.0334 12.3426 10.0794 12.3876 10.1345 12.4188C10.1895 12.4501 10.2518 12.4665 10.3151 12.4665L11.6849 12.4665C11.7482 12.4665 11.8104 12.4501 11.8655 12.419C11.9205 12.3878 11.9666 12.3429 11.9992 12.2887L12.6592 11.1887C12.6934 11.1317 12.7114 11.0665 12.7114 11.0001C12.7114 10.9336 12.6934 10.8684 12.6592 10.8114L11.9992 9.7114Z" fill="rgb(32.9375,148.41,255)" fill-rule="nonzero" />
	<path id="Vector" d="M19.9037 15.2937L18.437 14.4478L19.6166 14.0144C19.7935 13.9537 19.9419 13.8301 20.0336 13.6671C20.1254 13.5041 20.154 13.3131 20.1141 13.1304C20.0888 13.0309 20.0428 12.9379 19.9792 12.8574C19.9157 12.7768 19.8359 12.7105 19.7451 12.6627C19.6542 12.6149 19.5544 12.5867 19.452 12.5799C19.3496 12.5731 19.2469 12.5879 19.1505 12.6233L16.7848 13.4934L14.9273 12.4205L15.5466 11.373C15.6133 11.26 15.6485 11.1312 15.6485 11.0001C15.6485 10.8689 15.6133 10.7401 15.5466 10.6272L14.9276 9.5796L16.7848 8.50673L19.1505 9.37683C19.2515 9.41406 19.3595 9.4286 19.4667 9.41941C19.574 9.41023 19.6779 9.37755 19.7711 9.32368C19.8643 9.26982 19.9445 9.19611 20.006 9.10777C20.0675 9.01943 20.1088 8.91863 20.127 8.81254C20.152 8.63799 20.1154 8.46018 20.0234 8.30973C19.9314 8.15928 19.7899 8.0456 19.6232 7.98827L18.4381 7.5534L19.9048 6.70603C20.0683 6.61634 20.1932 6.46962 20.2555 6.29381C20.3179 6.118 20.3133 5.9254 20.2428 5.7527C20.201 5.65887 20.1399 5.57488 20.0635 5.50618C19.9871 5.43748 19.8971 5.3856 19.7994 5.3539C19.7016 5.3222 19.5983 5.31138 19.4962 5.32216C19.394 5.33294 19.2952 5.36507 19.2063 5.41647L17.7029 6.28363L17.9167 5.04723C17.9514 4.87161 17.9233 4.68937 17.8373 4.53235C17.7513 4.37532 17.6129 4.25349 17.4463 4.18813C17.3456 4.15252 17.2384 4.13931 17.1322 4.14942C17.0259 4.15953 16.9231 4.19272 16.831 4.24667C16.7389 4.30061 16.6597 4.37402 16.5989 4.46176C16.5381 4.54949 16.4972 4.64945 16.479 4.75463L16.0496 7.23843L14.1796 8.31827L13.5948 7.32827C13.5302 7.2185 13.4382 7.12743 13.3277 7.06404C13.2173 7.00065 13.0922 6.96711 12.9649 6.96673L11.7332 6.96673L11.7332 4.74363L13.6399 3.15523C13.7795 3.04385 13.8755 2.88692 13.9111 2.71191C13.9467 2.53689 13.9196 2.35493 13.8346 2.19787C13.781 2.10561 13.7079 2.02616 13.6204 1.96507C13.5329 1.90399 13.4331 1.86274 13.328 1.8442C13.2229 1.82566 13.115 1.83028 13.0119 1.85773C12.9088 1.88519 12.8129 1.93482 12.7309 2.00317L11.7332 2.8344L11.7332 1.1393C11.7372 0.960789 11.6782 0.786571 11.5667 0.647142C11.4552 0.507713 11.2981 0.411957 11.1231 0.376634C11.0178 0.358696 10.9099 0.363959 10.8069 0.392056C10.7039 0.420152 10.6083 0.470404 10.5267 0.5393C10.4451 0.608196 10.3796 0.694074 10.3347 0.790933C10.2897 0.887791 10.2665 0.993294 10.2666 1.10007L10.2666 2.8344L9.2993 2.02773C9.16466 1.91057 8.99311 1.8445 8.81466 1.84108C8.63622 1.83767 8.46226 1.89712 8.32323 2.00903C8.24207 2.07843 8.17703 2.16472 8.13268 2.26186C8.08833 2.35901 8.06573 2.46467 8.06647 2.57146C8.0672 2.67825 8.09125 2.78359 8.13693 2.88011C8.18261 2.97664 8.24882 3.06203 8.33093 3.1303L10.2669 4.74363L10.2669 6.96673L9.03493 6.96673C8.90744 6.96674 8.78215 6.99999 8.67142 7.0632C8.5607 7.1264 8.46836 7.21739 8.40353 7.32717L7.8187 8.31717L5.9487 7.23734L5.52667 4.79497C5.49874 4.61017 5.40392 4.44205 5.26022 4.32255C5.11651 4.20304 4.93393 4.14047 4.74714 4.1467C4.64466 4.15367 4.54479 4.18208 4.454 4.2301C4.3632 4.27812 4.28351 4.34468 4.22008 4.42546C4.15665 4.50625 4.1109 4.59945 4.08578 4.69905C4.06067 4.79864 4.05676 4.9024 4.0743 5.0036L4.2943 6.28254L2.82764 5.4348C2.6751 5.34203 2.49478 5.30589 2.31827 5.3327C2.14176 5.35952 1.98031 5.44758 1.8622 5.58147C1.79407 5.66363 1.74469 5.75968 1.71752 5.86291C1.69034 5.96614 1.68604 6.07405 1.70489 6.17912C1.72375 6.28418 1.76531 6.38386 1.82668 6.4712C1.88805 6.55854 1.96775 6.63142 2.0602 6.68477L3.56354 7.55194L2.37774 7.9879C2.21086 8.04523 2.06919 8.15894 1.97711 8.30945C1.88502 8.45996 1.84828 8.63786 1.8732 8.81254C1.89137 8.91863 1.93267 9.01943 1.99418 9.10777C2.05568 9.19611 2.13588 9.26982 2.22908 9.32368C2.32227 9.37755 2.42618 9.41023 2.53343 9.41941C2.64068 9.4286 2.74864 9.41406 2.84964 9.37683L5.215 8.50673L7.07253 9.5796L6.45323 10.6272C6.38653 10.7401 6.35135 10.8689 6.35135 11.0001C6.35135 11.1312 6.38653 11.26 6.45323 11.373L7.07217 12.4205L5.215 13.4934L2.84964 12.6233C2.75331 12.5878 2.6506 12.573 2.54817 12.5797C2.44573 12.5864 2.34585 12.6146 2.25499 12.6623C2.16412 12.7101 2.0843 12.7764 2.02068 12.857C1.95706 12.9375 1.91107 13.0306 1.88567 13.13C1.84576 13.3128 1.8744 13.5039 1.96613 13.6669C2.05786 13.83 2.2063 13.9537 2.38324 14.0144L3.5617 14.4467L2.09834 15.2901C1.93229 15.381 1.80592 15.5303 1.74373 15.7091C1.68154 15.8879 1.68796 16.0834 1.76174 16.2577C1.80474 16.3498 1.86643 16.432 1.94288 16.499C2.01933 16.566 2.10887 16.6163 2.20583 16.6469C2.30278 16.6774 2.40503 16.6875 2.50607 16.6764C2.60712 16.6653 2.70476 16.6334 2.7928 16.5826L4.29614 15.7154L4.08164 16.9569C4.05961 17.0643 4.06142 17.1753 4.08693 17.2819C4.11244 17.3885 4.16103 17.4882 4.22928 17.5741C4.29753 17.6599 4.38378 17.7296 4.48193 17.7785C4.58009 17.8273 4.68777 17.854 4.79737 17.8567C4.97006 17.8565 5.13713 17.7953 5.26913 17.684C5.40114 17.5726 5.48961 17.4182 5.51897 17.2481L5.94833 14.7643L7.81833 13.6844L8.40317 14.6744C8.46821 14.784 8.56068 14.8747 8.67146 14.9377C8.78225 15.0006 8.90752 15.0336 9.03493 15.0334L10.2666 15.0334L10.2666 17.2565L8.3599 18.8467C8.22035 18.958 8.12443 19.1149 8.08896 19.2898C8.0535 19.4647 8.08075 19.6465 8.16593 19.8034C8.21956 19.8956 8.29268 19.9751 8.38018 20.0362C8.46768 20.0972 8.56746 20.1385 8.67255 20.157C8.77764 20.1756 8.88551 20.171 8.98863 20.1435C9.09176 20.116 9.18764 20.0664 9.2696 19.9981L10.2666 19.1657L10.2666 20.8608C10.2626 21.0393 10.3216 21.2136 10.4331 21.353C10.5446 21.4924 10.7017 21.5882 10.8767 21.6235C10.982 21.6414 11.0899 21.6362 11.1929 21.6081C11.2959 21.58 11.3915 21.5297 11.4731 21.4608C11.5547 21.3919 11.6202 21.3061 11.6651 21.2092C11.7101 21.1123 11.7333 21.0068 11.7332 20.9001L11.7332 19.1657L12.7306 19.997C12.8142 20.0668 12.9124 20.1171 13.018 20.1442C13.1236 20.1713 13.2338 20.1746 13.3408 20.1537C13.4478 20.1329 13.5488 20.0884 13.6364 20.0236C13.724 19.9588 13.7961 19.8753 13.8474 19.7792C13.9254 19.6242 13.9476 19.4472 13.9105 19.2777C13.8734 19.1083 13.7791 18.9568 13.6436 18.8486L11.7332 17.2565L11.7332 15.0334L12.9649 15.0334C13.0924 15.0334 13.2177 15.0001 13.3284 14.9369C13.4391 14.8737 13.5314 14.7827 13.5963 14.673L14.1811 13.683L16.0511 14.7628L16.4805 17.2466C16.5098 17.4168 16.5983 17.5711 16.7303 17.6825C16.8623 17.7938 17.0294 17.855 17.2021 17.8553C17.3119 17.8519 17.4197 17.8245 17.5179 17.7751C17.616 17.7257 17.7022 17.6555 17.7704 17.5693C17.8386 17.4831 17.8871 17.383 17.9126 17.2761C17.938 17.1692 17.9398 17.058 17.9178 16.9503L17.7044 15.7176L19.2077 16.5848C19.2958 16.6357 19.3934 16.6677 19.4945 16.6788C19.5956 16.6899 19.6978 16.6799 19.7948 16.6494C19.8918 16.6189 19.9814 16.5686 20.0579 16.5016C20.1344 16.4346 20.1961 16.3524 20.2392 16.2603C20.313 16.0862 20.3195 15.891 20.2575 15.7124C20.1955 15.5338 20.0694 15.3846 19.9037 15.2937ZM13.2879 11.5658L12.6279 12.6658C12.5299 12.8284 12.3916 12.963 12.2264 13.0566C12.0612 13.1501 11.8747 13.1996 11.6848 13.2001L10.315 13.2001C10.1251 13.1996 9.9386 13.1501 9.77342 13.0566C9.60823 12.963 9.46994 12.8284 9.3719 12.6658L8.7119 11.5658C8.60897 11.3951 8.55458 11.1995 8.55458 11.0001C8.55458 10.8007 8.60897 10.6051 8.7119 10.4343L9.3719 9.3343C9.46994 9.17173 9.60823 9.03716 9.77342 8.94358C9.9386 8.85001 10.1251 8.80058 10.315 8.80007L11.6848 8.80007C11.8747 8.80058 12.0612 8.85001 12.2264 8.94358C12.3916 9.03716 12.5299 9.17173 12.6279 9.3343L13.2879 10.4343C13.3908 10.6051 13.4452 10.8007 13.4452 11.0001C13.4452 11.1995 13.3908 11.3951 13.2879 11.5658Z" fill="rgb(32.9375,148.41,255)" fill-rule="nonzero" />
</svg>
