<svg viewBox="0 0 25 25" xmlns="http://www.w3.org/2000/svg" xmlns:xlink="http://www.w3.org/1999/xlink" width="25.000000" height="25.000000" fill="none">
	<rect id="sun 1" width="25.000000" height="25.000000" x="0.000000" y="0.000000" fill="rgb(255,255,255)" fill-opacity="0" />
	<g id="Group">
		<g id="Group">
			<path id="Vector" d="M12.4999 6.23828C9.04718 6.23828 6.23828 9.04774 6.23828 12.5005C6.23828 15.9532 9.04718 18.7626 12.4999 18.7626C15.9521 18.7626 18.7615 15.9537 18.7615 12.5005C18.7615 9.04718 15.9521 6.23828 12.4999 6.23828Z" fill="rgb(32.9375,148.41,255)" fill-rule="nonzero" />
			<g id="Group">
				<g id="Group">
					<path id="Vector" d="M12.5001 4.3977C11.8253 4.3977 11.2783 3.85075 11.2783 3.17648L11.2783 1.22177C11.2783 0.546944 11.8253 0 12.5001 0C13.1749 0 13.7219 0.546944 13.7219 1.22177L13.7219 3.17648C13.7219 3.85075 13.1744 4.3977 12.5001 4.3977Z" fill="rgb(32.9375,148.41,255)" fill-rule="nonzero" />
				</g>
				<g id="Group">
					<path id="Vector" d="M12.5001 20.6016C11.8253 20.6016 11.2783 21.1485 11.2783 21.8233L11.2783 23.7775C11.2783 24.4529 11.8253 24.9998 12.5001 24.9998C13.1749 24.9998 13.7219 24.4529 13.7219 23.7775L13.7219 21.8233C13.7219 21.1485 13.1744 20.6016 12.5001 20.6016Z" fill="rgb(32.9375,148.41,255)" fill-rule="nonzero" />
				</g>
				<g id="Group">
					<path id="Vector" d="M18.2286 6.77124C17.7519 6.29405 17.7519 5.52069 18.2286 5.0435L19.6109 3.66119C20.0875 3.18455 20.8614 3.18455 21.3386 3.66119C21.8158 4.13838 21.8158 4.9123 21.3386 5.38894L19.9563 6.77124C19.4797 7.24843 18.7063 7.24843 18.2286 6.77124Z" fill="rgb(32.9375,148.41,255)" fill-rule="nonzero" />
				</g>
				<g id="Group">
					<path id="Vector" d="M6.77096 18.2294C6.29377 17.7517 5.52041 17.7517 5.04322 18.2294L3.66091 19.6112C3.18427 20.0878 3.18372 20.8623 3.66091 21.3389C4.1381 21.8155 4.91202 21.8155 5.38865 21.3389L6.77096 19.956C7.24815 19.4794 7.24815 18.7055 6.77096 18.2294Z" fill="rgb(32.9375,148.41,255)" fill-rule="nonzero" />
				</g>
				<g id="Group">
					<path id="Vector" d="M20.6018 12.5001C20.6018 11.8253 21.1488 11.2783 21.8236 11.2783L23.7783 11.2783C24.4531 11.2783 25.0001 11.8253 25.0001 12.5001C25.0001 13.1749 24.4531 13.7213 23.7783 13.7213L21.8236 13.7213C21.1488 13.7213 20.6018 13.1749 20.6018 12.5001Z" fill="rgb(32.9375,148.41,255)" fill-rule="nonzero" />
				</g>
				<g id="Group">
					<path id="Vector" d="M4.3977 12.5001C4.3977 11.8253 3.85075 11.2783 3.17593 11.2783L1.22177 11.2783C0.546944 11.2783 0 11.8253 0 12.5001C0 13.1749 0.546944 13.7213 1.22177 13.7213L3.17648 13.7213C3.85075 13.7213 4.3977 13.1749 4.3977 12.5001Z" fill="rgb(32.9375,148.41,255)" fill-rule="nonzero" />
				</g>
				<g id="Group">
					<path id="Vector" d="M18.2285 18.2295C18.7057 17.7529 19.4796 17.7529 19.9562 18.2295L21.3386 19.6119C21.8158 20.0879 21.8158 20.8624 21.3386 21.339C20.8614 21.8157 20.088 21.8157 19.6108 21.339L18.2285 19.9567C17.7513 19.4795 17.7513 18.7062 18.2285 18.2295Z" fill="rgb(32.9375,148.41,255)" fill-rule="nonzero" />
				</g>
				<g id="Group">
					<path id="Vector" d="M6.77093 6.77111C7.24812 6.29391 7.24812 5.52055 6.77093 5.04336L5.38862 3.66161C4.91143 3.18441 4.13806 3.18441 3.66087 3.66161C3.18368 4.13824 3.18368 4.91216 3.66087 5.3888L5.04318 6.77111C5.52037 7.24885 6.29373 7.24885 6.77093 6.77111Z" fill="rgb(32.9375,148.41,255)" fill-rule="nonzero" />
				</g>
			</g>
		</g>
	</g>
</svg>
